<svg>
  <g
     id="layer1"
     transform="translate(-67.605284,-100.84629)">
    <g
       aria-label="109🗲149"
       id="text968"
       style="font-size:67.7333px;line-height:1.25;font-family:Squealer;-inkscape-font-specification:'Squealer, Normal';stroke-width:0.264583">
      <path
         d="m 81.69381,157.67453 -7.924796,-7.99253 3.522132,-3.58986 v -28.65119 l -3.522132,3.6576 -6.16373,-6.096 14.088526,-14.08852 4.402664,4.47039 v 40.70772 l 3.589865,3.58986 z"
         style="stroke-width:0.264583"
         id="path970" />
      <path
         d="m 108.24514,117.71188 -7.11199,-7.11199 v 32.71518 l 2.30293,2.2352 4.80906,-4.80906 z m -4.33493,39.96265 -11.582393,-11.58239 v -33.05385 l 12.259723,-12.192 12.46293,12.46293 v 31.36052 z"
         style="stroke-width:0.264583"
         id="path972" />
      <path
         d="m 136.08346,110.59989 -8.80533,8.66986 v 1.8288 l 8.80533,8.66986 z m -3.2512,47.07464 -13.07252,-13.00479 6.36693,-6.2992 7.17973,7.17973 2.30293,-2.2352 v -2.2352 l -16.18826,-16.18826 v -11.17599 l 12.93706,-12.59839 12.05653,11.92106 v 33.05385 z"
         style="stroke-width:0.264583"
         id="path974" />
      <path
         d="m 147.36721,154.21349 c 0,-0.31658 -0.39548,-0.15829 -0.39548,-0.47486 0,-0.15829 0.0264,-0.25327 0.0791,-0.28492 l 5.11204,-18.30704 -4.88687,-0.34022 c -0.15819,-0.0633 -0.23729,-0.20578 -0.23729,-0.42737 0,-0.22161 0.0527,-0.34824 0.15819,-0.3799 l 9.93291,-23.51322 c 0.0527,-0.0318 8.95544,0.11381 9.03453,0.11381 0.0791,0 -0.0791,-0.0633 0,0 0.10546,0.0633 0,-0.15828 0,0 0,0.12663 0.1944,-0.17818 0.1153,-0.0832 l -5.91967,14.55035 5.77032,-0.12207 c 0.18456,0.0633 0.27683,0.17411 0.27683,0.33239 0,0.2216 -0.0659,0.3799 -0.19773,0.47487 l -18.64444,28.36639 c -0.0527,0.0633 -0.19773,0.18994 -0.19773,0.095 z"
         style="stroke-width:0.169279"
         id="path976" />
      <path
         d="m 182.03283,157.67453 -7.9248,-7.99253 3.52213,-3.58986 v -28.65119 l -3.52213,3.6576 -6.16373,-6.096 14.08853,-14.08852 4.40266,4.47039 v 40.70772 l 3.58987,3.58986 z"
         style="stroke-width:0.264583"
         id="path978" />
      <path
         d="m 207.90379,113.91882 -8.9408,20.99732 h 8.9408 z m 8.80533,29.59945 v 2.57387 l 3.58986,3.58986 -7.99253,7.99253 -7.92479,-7.99253 3.52213,-3.58986 v -2.57387 H 193.4766 l -4.2672,-8.60213 15.44319,-34.00211 h 12.05653 l 4.19946,4.19946 -4.19946,3.99626 v 25.80639 h 8.60213 z"
         style="stroke-width:0.264583"
         id="path980" />
      <path
         d="m 241.75362,110.59989 -8.80533,8.66986 v 1.8288 l 8.80533,8.66986 z m -3.2512,47.07464 -13.07252,-13.00479 6.36693,-6.2992 7.17973,7.17973 2.30293,-2.2352 v -2.2352 l -16.18826,-16.18826 v -11.17599 l 12.93706,-12.59839 12.05653,11.92106 v 33.05385 z"
         style="stroke-width:0.264583"
         id="path982" />
    </g>
  </g>
</svg>
