<svg
   width="209.04747"
   height="186.14198"
   viewBox="0 0 209.04747 186.14198">
  <g
     id="g1238"
     transform="translate(-14.009717,-13.688199)">
    <g
       id="g1282">
      <path
         style="fill:#dddddd;fill-opacity:1"
         d="m 71.122803,198.99792 c -6.908704,-1.63114 -12.055312,-7.52232 -14.794704,-16.93509 -2.537932,-8.72055 -1.939195,-26.81498 1.263051,-38.17071 0.341059,-1.20946 -1.100854,-2.16696 -5.818868,-3.86404 C 29.293026,131.94227 14.044365,118.22813 14.009769,106.06572 13.97763,94.76728 28.779179,81.569339 49.5,74.420526 c 4.4,-1.518027 8.120422,-2.841579 8.267604,-2.941225 0.147182,-0.09965 -0.431153,-3.502951 -1.285189,-7.562898 -2.013618,-9.572405 -2.026351,-26.820895 -0.02473,-33.504788 1.798959,-6.00717 4.952781,-10.921406 8.869083,-13.819667 2.3573,-1.744521 4.267198,-2.091948 11.5,-2.091948 8.198232,0 9.140897,0.232807 17.212349,4.25088 4.696511,2.337983 12.233553,7.206792 16.748973,10.819573 l 8.20985,6.568694 5.75103,-4.96209 c 7.64379,-6.595188 17.17547,-12.625093 24.10521,-15.24938 6.99527,-2.6491 16.3849,-2.928827 20.80582,-0.619829 10.84314,5.663243 15.32079,22.408021 11.93119,44.618287 C 180.71603,65.66051 180,70.661429 180,71.03929 c 0,0.377861 3.95014,2.100021 8.77809,3.827022 30.56301,10.932667 42.01353,29.299758 28.44921,45.633688 -5.74633,6.91964 -21.25587,16.11241 -33.04118,19.58409 -3.61294,1.06428 -4.2297,1.60752 -3.79581,3.34334 3.35814,13.43466 3.21711,32.51775 -0.30851,41.74485 -2.60686,6.82258 -8.16101,12.23342 -14.2368,13.86946 -9.97368,2.68563 -27.30396,-4.658 -41.84499,-17.73164 L 119,176.81466 l -5.00001,4.49544 c -10.02617,9.01439 -21.537287,15.37087 -31.799211,17.55963 -5.888879,1.25604 -6.281727,1.26058 -11.077976,0.12819 z m 15.284979,-10.65514 c 5.19977,-1.81683 12.716575,-6.48368 20.269608,-12.5845 l 6.1774,-4.98968 -5.34954,-6.30598 c -2.94224,-3.46829 -7.05562,-8.59123 -9.140845,-11.3843 C 95.64015,149.42928 93.895304,148 92.164883,148 c -1.878124,0 -19.576682,-2.39607 -24.55268,-3.324 -2.814433,-0.52483 -4.831666,27.39297 -2.568197,35.54295 1.278526,4.60353 5.290747,9.50996 8.240128,10.07663 2.882381,0.55379 8.225054,-0.2412 13.123648,-1.9528 z m 78.981548,1.26791 c 7.24223,-3.026 10.53516,-19.72264 7.41763,-37.61069 -1.12926,-6.47953 -1.57922,-7.48257 -3.30703,-7.3719 -1.09996,0.0705 -7.51791,0.93682 -14.26211,1.92526 l -12.26217,1.79715 -4.16858,5.57475 c -2.29272,3.06611 -6.18083,7.95353 -8.64023,10.86094 l -4.47165,5.28621 2.90241,3.06558 c 6.34167,6.6982 19.87396,15.06284 27.13687,16.77396 5.36618,1.26426 5.95178,1.24598 9.65486,-0.30126 z M 125.52986,156.25 l 5.57384,-6.75 -6.05185,-0.29772 c -3.32852,-0.16374 -8.82833,-0.16374 -12.2218,0 l -6.16995,0.29772 5.73257,6.75 c 3.15292,3.7125 6.1445,6.75 6.64796,6.75 0.50346,0 3.42361,-3.0375 6.48923,-6.75 z m 18.73947,-27.01394 c 3.55496,-5.92016 7.83944,-13.48955 9.52107,-16.82084 l 3.05752,-6.05691 -4.49057,-8.429156 C 145.65052,85.339885 139.08755,75.117223 136.99205,73.995745 134.16753,72.484109 101.76354,72.705419 99.764358,74.25 97.80154,75.766485 88.258108,91.410822 83.880735,100.28767 l -3.17682,6.44226 4.953278,9.40885 c 2.724303,5.17487 7.056845,12.66064 9.627871,16.63504 L 99.959656,140 h 18.923064 18.92306 z m -34.10106,-6.38179 c -10.270418,-5.08372 -13.252725,-19.12072 -6.01681,-28.319687 4.58337,-5.826811 14.85354,-8.230639 22.14628,-5.183539 10.32374,4.313534 14.10895,19.182706 7.1919,28.251416 -5.36228,7.03032 -15.23621,9.25386 -23.32137,5.25181 z M 83.989202,131.6025 C 81.756465,127.92734 79.187157,123.3633 78.279628,121.4602 77.372099,119.55709 76.362772,118 76.03668,118 c -0.649641,0 -7.296552,17.07643 -6.826753,17.53846 0.373846,0.36766 18.201126,3.18685 18.564435,2.93576 0.150899,-0.10428 -1.552423,-3.19656 -3.78516,-6.87172 z m 76.161718,5.2355 c 3.8699,-0.6391 7.24601,-1.7088 7.50246,-2.37711 0.25646,-0.66831 -0.96302,-4.92141 -2.70994,-9.45133 l -3.17622,-8.23621 -2.66331,4.86332 c -1.46483,2.67483 -4.14548,7.45083 -5.957,10.61333 -3.75766,6.55998 -3.99507,6.40446 7.00401,4.588 z m -97.730046,-9.50422 c 0.982365,-3.11642 3.229489,-9.08858 4.993608,-13.27147 l 3.20749,-7.60525 -2.221012,-5.06772 C 67.179404,98.602098 64.938067,92.76176 63.420212,88.410813 61.902357,84.059866 60.561247,80.361878 60.439968,80.193063 59.762389,79.249906 40.727256,87.692814 35.113462,91.426469 23.50139,99.149493 20.727923,105.38873 25.669436,112.6719 c 3.508469,5.17104 9.014935,9.61191 16.830564,13.57355 5.890018,2.98558 14.962971,6.53743 17.067378,6.68148 0.587058,0.0402 1.871131,-2.47673 2.853496,-5.59315 z m 122.081496,3.12911 c 12.659,-4.76484 22.32572,-10.86244 26.62122,-16.7922 4.97712,-6.87071 3.39269,-12.84472 -5.21022,-19.644933 -5.39642,-4.265628 -14.59013,-8.990116 -23.37817,-12.013645 l -5.42306,-1.865808 -1.71053,5.176848 c -0.94079,2.847266 -3.22737,8.730721 -5.08127,13.074343 l -3.37074,7.897495 3.92357,9.14727 c 2.15796,5.031 4.49053,11.03962 5.18349,13.3525 0.69295,2.31288 1.36011,4.20524 1.48257,4.20524 0.12246,0 3.25587,-1.1417 6.96314,-2.53711 z M 164.94645,87.334368 c 2.24837,-6.213677 2.80771,-8.868272 1.97681,-9.381798 -1.48701,-0.91902 -15.94275,-3.266417 -16.52564,-2.683519 -0.24229,0.242288 2.04413,4.645261 5.08093,9.784386 3.0368,5.139124 5.52145,9.704469 5.52145,10.145212 0,2.200228 1.09229,0.02357 3.94645,-7.864281 z M 77,94.198649 c 0,-0.440743 2.476353,-4.99204 5.503007,-10.113994 l 5.503006,-9.312644 -4.753006,0.695658 c -2.614154,0.382612 -6.867276,1.141216 -9.451383,1.685787 l -4.698376,0.990129 2.948376,7.996427 C 73.673231,90.538046 75,94.33074 75,94.568219 75,94.805699 75.45,95 76,95 c 0.55,0 1,-0.360608 1,-0.801351 z M 84.067228,66.189855 94.634455,64.5 103.48425,53.56391 112.33404,42.627819 108.41702,39.208918 C 96.979817,29.226154 84.763761,23.062481 76.338894,23.023735 c -4.532992,-0.02085 -5.471502,0.345149 -7.711571,3.00732 -1.402755,1.66708 -3.015248,4.70458 -3.583317,6.75 -1.937,6.974469 -1.071461,27.058781 1.509055,35.016707 0.287845,0.887671 1.451949,1.105665 3.683882,0.689856 1.794682,-0.334349 8.018309,-1.368342 13.830285,-2.297763 z M 171.35579,66.75 C 171.67977,65.5125 172.46162,60.225 173.09323,55 175.0504,38.809156 171.91054,26.114046 165.2618,23.336029 158.95042,20.698965 147.56131,24.916277 135,34.54177 c -3.025,2.318001 -6.34867,5.159906 -7.38594,6.315345 -2.17108,2.418414 -2.64466,1.515914 7.09189,13.514993 3.41328,4.206432 6.56328,8.248446 7,8.982253 0.47362,0.795792 5.83831,2.152058 13.29405,3.360912 16.30209,2.643181 15.67324,2.641846 16.35579,0.03473 z M 125.35979,57 c -3.16727,-3.85 -6.0744,-7 -6.46029,-7 -0.70453,0 -9.92032,10.410048 -11.2873,12.75 -0.56748,0.971406 1.97062,1.25 11.38802,1.25 h 12.11826 z"
         id="path1298" />
      <path
         style="fill:#d4d4d4;fill-opacity:1"
         d="M 70.703841,198.55139 C 60.518455,195.86358 55.843231,187.4438 55.1912,170.6141 c -0.359177,-9.27078 0.890093,-23.05641 2.460184,-27.148 0.263597,-0.68693 -2.13089,-2.08957 -5.852633,-3.42837 C 34.534666,133.82747 20.711571,123.8705 16.349346,114.50304 12.065413,105.3037 13.706258,99.201617 22.952632,89.946298 29.758927,83.133419 40.049056,77.302487 52,73.486523 c 3.025,-0.96589 5.606346,-1.83934 5.736323,-1.941 0.129978,-0.10166 -0.432522,-3.680577 -1.25,-7.953148 C 54.554201,53.49408 54.556413,36.85672 56.490746,30.343117 59.697553,19.544624 64.97652,14.787307 74.419495,14.186024 84.927249,13.51694 96.779953,18.476274 110,29.073393 c 3.575,2.865701 7.05264,5.64344 7.7281,6.172753 0.86165,0.675225 2.64265,-0.282752 5.96878,-3.210528 10.67708,-9.398342 22.86269,-16.137956 32.26975,-17.847744 15.43446,-2.805303 24.53455,6.23353 26.49043,26.312126 0.60175,6.177336 0.13382,12.308753 -2.06623,27.074477 l -0.60708,4.074477 8.85812,3.177608 c 20.90217,7.498075 34.39531,19.83094 34.33617,31.383598 -0.0325,6.34177 -2.91032,11.5949 -9.88913,18.05129 -6.28432,5.81389 -19.74394,13.19236 -28.90279,15.84431 -3.61693,1.04729 -4.23018,1.58393 -3.79581,3.32167 3.32451,13.3001 3.19012,32.38203 -0.29314,41.62405 -2.08732,5.53822 -6.36238,10.54865 -11.09717,13.00606 -3.76171,1.95236 -13.66807,1.4679 -20.14582,-0.98522 -6.93947,-2.62796 -16.46392,-8.65627 -24.13694,-15.27697 l -5.78276,-4.98968 -4.22883,3.89801 c -9.31863,8.58961 -23.201277,16.47082 -31.327224,17.78453 -2.133135,0.34486 -4.778426,0.78493 -5.878426,0.97792 -1.1,0.193 -4.158271,-0.21864 -6.796159,-0.91474 z m 15.750182,-10.21158 c 5.553211,-1.95929 10.981035,-5.27532 19.338027,-11.81421 l 7.17738,-5.61591 -7.49327,-9.00308 c -4.12129,-4.95169 -8.182645,-10.05521 -9.025227,-11.34115 -1.282918,-1.95798 -2.703998,-2.44894 -8.74145,-3.02004 -3.965216,-0.37507 -10.262242,-1.25857 -13.993391,-1.96333 -3.731149,-0.70476 -6.954598,-1.0052 -7.163218,-0.66764 -1.226119,1.9839 -2.78949,14.94808 -2.785155,23.09576 0.0066,12.36886 2.867886,19.5997 8.732281,22.06746 2.34796,0.98802 8.344892,0.24116 13.954023,-1.73786 z M 166.1373,189.429 c 4.75176,-2.45723 7.11969,-8.98356 7.5936,-20.929 0.23627,-5.95545 -0.14686,-12.83118 -0.94728,-17 -1.13829,-5.92857 -1.64551,-6.98039 -3.31381,-6.8719 -1.0834,0.0705 -7.52337,0.94182 -14.31106,1.93636 -12.18558,1.78544 -12.37449,1.8532 -14.97695,5.3719 -1.44963,1.96 -5.23357,6.79076 -8.40875,10.73503 -3.17518,3.94426 -5.7512,7.54426 -5.7245,8 0.0765,1.30469 10.37584,9.44878 17.22545,13.62077 10.2837,6.26364 17.53416,7.89264 22.8633,5.13684 z M 129.89602,150.75 c 1.26768,-1.64467 0.61712,-1.75 -10.80876,-1.75 -14.02503,0 -13.77907,-0.44705 -5.08703,9.24599 l 5.1526,5.746 4.69716,-5.746 c 2.58344,-3.16029 5.30415,-6.53349 6.04603,-7.49599 z m 14.42535,-21.5 c 3.54695,-5.9125 7.81782,-13.48459 9.49081,-16.82686 l 3.04181,-6.07687 -5.03201,-9.423135 C 149.05437,91.740411 144.69972,84.35 142.14498,80.5 L 137.5,73.5 118.72989,73.227861 99.959786,72.955722 94.955693,80.727861 c -2.752252,4.274676 -7.095502,11.853588 -9.651667,16.842026 l -4.647572,9.069883 4.977009,9.45394 c 2.737355,5.19966 7.080575,12.70571 9.651601,16.68011 L 99.959656,140 h 18.956354 18.95636 z M 111.5,123.60729 c -1.65,-0.72293 -4.45238,-2.80539 -6.22751,-4.62769 C 94.092582,107.50262 102.41485,88 118.49228,88 c 6.0498,0 10.3445,1.911131 14.22402,6.329664 3.55968,4.054258 4.7729,8.637806 4.03027,15.226426 -1.25678,11.15007 -14.74028,18.65444 -25.24657,14.0512 z m -28.978546,5.33927 C 79.484654,123.80744 77,119.24209 77,118.80135 77,118.36061 76.610071,118 76.133492,118 c -0.809299,0 -7.484792,16.98772 -6.900842,17.56118 0.356298,0.3499 18.191078,3.15512 18.538804,2.91595 0.1493,-0.10269 -2.2132,-4.39144 -5.25,-9.53057 z M 160,136.96746 c 2.475,-0.541 5.49113,-1.20821 6.7025,-1.48268 l 2.2025,-0.49904 -2.50346,-6.65108 c -2.74569,-7.29465 -5.29881,-12.42959 -5.3615,-10.78331 -0.022,0.57824 -2.51504,5.23975 -5.54004,10.35891 -3.025,5.11915 -5.5,9.48355 -5.5,9.69865 0,0.70773 5.41749,0.36023 10,-0.64145 z m -98.103253,-8.01717 c 0.667327,-2.22734 2.905979,-8.19385 4.974781,-13.25891 l 3.761459,-9.20919 -2.226519,-5.08028 c -1.224586,-2.794157 -3.468401,-8.64015 -4.986256,-12.991097 -1.517855,-4.350947 -2.846116,-8.036086 -2.951691,-8.189197 -0.105575,-0.153111 -3.516682,0.903639 -7.580238,2.348332 -15.91722,5.658961 -28.095532,14.687404 -29.433775,21.820852 -1.625806,8.66629 10.873824,19.78523 30.045492,26.7267 6.835284,2.47485 7.020257,2.42711 8.396747,-2.16721 z m 122.365843,1.67529 C 202.63515,123.71017 214,114.49001 214,106.5 214,98.587398 202.80013,89.436899 185.29685,83.048991 l -7.93083,-2.894394 -5.19922,13.293342 -5.19923,13.293341 2.84894,6.37936 c 1.56691,3.50865 3.93269,9.41686 5.25727,13.12936 1.32458,3.7125 2.51459,6.75 2.64445,6.75 0.12986,0 3.07483,-1.06849 6.54436,-2.37442 z M 165.58781,86.17016 c 2.07517,-5.689777 2.40354,-7.55747 1.43406,-8.156642 -1.52505,-0.942533 -16.01277,-3.355953 -16.60294,-2.765783 -0.23056,0.230565 2.16836,4.935449 5.33093,10.455299 3.23169,5.640467 6.05593,9.556623 6.44831,8.941372 0.384,-0.602095 1.90933,-4.415506 3.38964,-8.474246 z M 77,94.198649 c 0,-0.440743 2.44604,-4.940743 5.435645,-10 4.987928,-8.440984 5.25562,-9.195622 3.25,-9.161894 -2.66347,0.04479 -15.558457,2.495336 -16.095766,3.058817 C 68.915377,78.802927 75.146262,95 76.092877,95 76.591795,95 77,94.639392 77,94.198649 Z m 6.5,-27.714983 c 10.309709,-1.50372 11.156884,-1.802653 13.5,-4.763586 1.375,-1.737551 5.39308,-6.739442 8.92906,-11.115314 l 6.42906,-7.956131 -3.92906,-3.429309 C 96.979059,29.225687 84.76723,23.062497 76.338894,23.023735 c -4.53832,-0.02087 -5.470333,0.343759 -7.7237,3.021734 -3.468162,4.121676 -4.834716,9.810084 -4.804056,19.997334 0.02367,7.863429 1.630809,20.245231 2.892861,22.287274 0.291739,0.472044 1.715187,0.610701 3.163218,0.308127 C 71.315248,68.335629 77.45,67.366087 83.5,66.483666 Z m 88.38557,-2.38568 c 4.1589,-19.392291 1.2247,-37.48266 -6.61057,-40.756444 -7.30456,-3.052042 -21.67884,3.08314 -35.05282,14.961135 l -5.11647,4.544142 6.40828,7.707986 c 3.52455,4.239393 7.43405,9.205007 8.68777,11.034699 1.97619,2.884056 3.01259,3.414231 7.78887,3.984436 3.03015,0.361747 8.43437,1.228077 12.00937,1.925178 10.84926,2.115531 10.69285,2.160287 11.88557,-3.401132 z M 128.15765,60.25 c -1.65573,-2.0625 -4.3959,-5.325 -6.08927,-7.25 l -3.07885,-3.5 -5.07452,5.5 c -8.63533,9.359371 -8.84033,9 5.13384,9 h 12.11921 z"
         id="path1296" />
      <path
         style="fill:#cbcbcb;fill-opacity:1"
         d="m 154.38875,198.45845 c -9.33987,-1.95048 -18.33609,-7.01026 -29.61365,-16.65574 l -5.72489,-4.89639 -6.27511,5.32291 C 99.008501,193.90687 86.374266,199.47286 75.082175,198.8348 64.97183,198.26352 59.785077,193.7501 56.490746,182.65688 c -1.930413,-6.5004 -1.920905,-23.96228 0.01803,-33.11547 0.810727,-3.82722 1.140414,-7.22393 0.732636,-7.54824 C 56.833636,141.66886 54.025,140.57555 51,139.5636 42.284209,136.64793 30.956133,130.43344 25.243245,125.43367 11.416691,113.33302 10.834295,100.74974 23.562389,89.116975 29.229856,83.937229 42.998395,76.371452 52,73.490579 c 3.025,-0.96812 5.636526,-1.873576 5.803391,-2.012123 0.166865,-0.138547 -0.448899,-3.964604 -1.368363,-8.502348 C 55.233951,57.048553 54.881957,51.456104 55.184815,43.112832 55.686576,29.290056 58.261701,22.190385 64.499236,17.432785 74.649195,9.6910342 94.62131,15.57751 113.31082,31.819254 115.95677,34.118664 118.30034,36 118.51874,36 c 0.21841,0 4.28083,-3.116043 9.02761,-6.92454 4.74677,-3.808497 12.06006,-8.619119 16.25174,-10.690271 6.45677,-3.190348 8.84977,-3.8275 15.66158,-4.17 7.18657,-0.361343 8.40945,-0.152789 11.51653,1.964067 7.93316,5.40486 11.44368,14.987913 11.29043,30.820744 -0.0559,5.775 -0.73358,13.705593 -1.50596,17.62354 l -1.40434,7.12354 5.57184,1.730276 c 10.22556,3.175445 22.06456,9.621627 28.34948,15.435934 12.34121,11.41709 12.9699,21.49326 2.06824,33.14801 -5.72837,6.12409 -14.82402,11.67391 -26.34589,16.07527 -4.675,1.78585 -8.62351,3.3217 -8.77446,3.41301 -0.15096,0.0913 0.46102,4.39251 1.35995,9.55822 2.96866,17.05946 0.57739,34.22029 -5.77686,41.45738 -5.57653,6.35131 -11.4666,7.97185 -21.41988,5.89327 z M 88.638055,187.48136 c 5.983152,-2.64603 12.621345,-6.98602 19.590755,-12.80826 l 4.72881,-3.95044 -4.8066,-5.61133 c -2.64364,-3.08623 -6.66469,-8.10151 -8.935672,-11.14505 l -4.129058,-5.53373 -12.293145,-1.73113 c -6.76123,-0.95212 -13.15007,-1.83695 -14.197424,-1.96628 -2.32433,-0.28701 -3.162771,2.32342 -4.667051,14.53057 -1.834878,14.88993 1.296456,27.57675 7.49229,30.35553 3.907756,1.7526 10.177573,0.97334 17.217095,-2.13988 z m 80.092675,0.0453 c 4.07983,-4.74309 5.61176,-12.63387 4.95116,-25.50286 -0.32534,-6.33809 -0.98797,-12.8738 -1.47251,-14.5238 -1.03627,-3.52882 -0.86925,-3.51812 -17.20938,-1.10186 -12.95626,1.91589 -10.47285,0.18337 -23.29241,16.24961 l -6.50125,8.14776 5.86038,4.84264 c 16.94105,13.99898 31.81127,18.69272 37.66401,11.88851 z m -46.45018,-27.18278 c 1.7707,-2.01087 4.49588,-5.38587 6.05596,-7.5 L 131.17302,149 h -12.1362 c -10.10958,0 -12.00266,0.23348 -11.33651,1.39818 0.88241,1.54282 10.63258,13.46574 11.08024,13.54939 0.1543,0.0288 1.7293,-1.59283 3.5,-3.60369 z m 20.21693,-27.89193 c 2.58747,-4.15142 6.88691,-11.69358 9.5543,-16.76035 l 4.8498,-9.21231 -4.91116,-9.297896 C 149.28928,92.06755 144.95788,84.53471 142.36509,80.441748 L 137.65093,73 H 118.79117 99.931417 l -4.989909,7.75 c -2.74445,4.2625 -7.116519,11.908014 -9.715709,16.990031 L 80.5,106.98006 l 4.404054,8.25997 c 2.42223,4.54298 6.799637,11.97247 9.72757,16.50997 L 99.95514,140 h 18.91893 18.91892 z m -29.91174,-8.49535 c -4.45385,-1.3319 -10.21009,-7.54326 -11.60386,-12.52133 C 97.663339,99.582618 106.37261,88 118.60346,88 c 5.97374,0 10.77898,2.391665 14.80879,7.37062 5.46282,6.7495 4.43621,18.93733 -2.09244,24.84124 -4.6077,4.16678 -12.2287,5.69014 -18.73407,3.74474 z m -24.752407,14.29074 c -1.487614,-3.35902 -11.475153,-20.20838 -11.98876,-20.2255 -0.737833,-0.0246 -7.100204,17.05586 -6.555946,17.60012 0.275337,0.27534 14.252643,2.8131 18.044706,3.27626 0.458334,0.056 0.683334,-0.23692 0.5,-0.65088 z m 72.733007,-1.29306 c 3.26351,-0.57514 6.49743,-1.23651 7.18647,-1.46969 1.21078,-0.40975 0.68108,-2.20689 -4.68689,-15.90155 l -1.14338,-2.91696 -5.96127,10.3182 C 152.68257,132.65929 150,137.45942 150,137.65124 c 0,0.65503 4.62638,0.34987 10.56634,-0.69696 z m -98.705266,-7.88492 c 0.647706,-2.16185 2.903802,-8.07764 5.013545,-13.14619 l 3.835896,-9.21554 -3.800222,-9.304108 C 64.82017,92.286265 62.561963,86.270002 61.892055,84.034049 60.508754,79.417002 61.255838,79.413154 49,84.100447 34.968733,89.46676 23,99.356842 23,105.58494 c 0,5.72492 5.718371,12.82155 14.458927,17.94386 5.976713,3.50258 19.562742,9.44311 21.632785,9.45899 0.990584,0.008 2.036466,-1.47224 2.769362,-3.91843 z M 185.8363,130.00289 C 203.32254,123.25948 214,114.34903 214,106.5 c 0,-8.209857 -11.34136,-17.304106 -29.78482,-23.883417 -6.72175,-2.397846 -7.32732,-2.464135 -7.83478,-0.857644 -0.30248,0.957584 -2.55982,6.934944 -5.0163,13.283023 l -4.46633,11.541958 3.39665,7.95804 c 1.86816,4.37692 4.17733,10.32054 5.13149,13.20804 0.95415,2.8875 1.93818,5.25 2.18672,5.25 0.24854,0 3.94919,-1.3487 8.22367,-2.99711 z M 165.64407,86.161704 c 2.10526,-5.746911 2.4098,-7.510375 1.40432,-8.131798 -1.54392,-0.954194 -16.03331,-3.378322 -16.62946,-2.782171 -0.23056,0.230565 2.16836,4.935449 5.33093,10.455299 3.37278,5.886725 6.0511,9.573213 6.47806,8.916528 0.40036,-0.615759 1.93763,-4.421795 3.41615,-8.457858 z m -83.489714,-1.19541 c 5.158325,-9.091995 5.465364,-9.96307 3.5,-9.929539 -2.64166,0.04507 -15.530951,2.499303 -16.064477,3.058817 -0.566982,0.594599 5.480322,16.910355 6.252998,16.870722 0.361418,-0.01854 3.201583,-4.518538 6.311479,-10 z m -5.404801,-17.39553 c 4.812745,-0.78608 10.849879,-1.707945 13.415853,-2.048588 4.361451,-0.579 5.026587,-1.088533 10.209092,-7.820764 3.04903,-3.960776 6.96138,-8.895929 8.6941,-10.967005 3.73637,-4.465977 3.67412,-4.58908 -6.04033,-11.944303 C 93.443183,27.532827 83.522859,22.921314 77.185495,22.77696 72.762359,22.676209 71.527504,23.078498 69.089181,25.414559 65.235315,29.106797 63.55201,35.640228 63.656625,46.5 63.756782,56.897024 65.855678,69 67.558572,69 c 0.242296,0 4.378238,-0.643156 9.190983,-1.429236 z m 95.164385,-3.605079 c 4.22179,-19.685538 1.20072,-37.604481 -6.90612,-40.962445 -7.12315,-2.950508 -21.85715,3.80671 -36.90175,16.923659 l -3.39393,2.959071 4.61706,5.135287 c 2.53939,2.824408 6.54166,7.764296 8.89393,10.977528 l 4.27687,5.84224 8.5,1.183057 c 4.675,0.650682 10.075,1.541248 12,1.979036 7.27989,1.655612 7.73745,1.448369 8.91394,-4.037433 z M 128.15765,60.25 c -1.65573,-2.0625 -4.3959,-5.325 -6.08927,-7.25 l -3.07885,-3.5 -5.07452,5.5 c -8.63533,9.359371 -8.84033,9 5.13384,9 h 12.11921 z"
         id="path1294" />
      <path
         style="fill:#c2c2c2;fill-opacity:1"
         d="m 67,197.2336 c -4.570228,-2.48346 -9.549246,-9.90457 -10.913646,-16.26655 -1.534465,-7.15496 -1.347693,-21.42522 0.399969,-30.55943 0.817478,-4.27257 1.247519,-8.00711 0.955646,-8.29898 -0.291873,-0.29188 -3.921016,-1.76673 -8.064762,-3.27746 C 22.136553,128.89977 9.0434962,112.2609 16.765311,97.387435 21.102808,89.032715 34.827727,79.632546 51,73.940169 c 3.575,-1.258342 6.639032,-2.386189 6.808961,-2.506326 0.169928,-0.120137 -0.392572,-3.91661 -1.25,-8.436605 C 54.619053,52.770875 54.568986,38.208534 56.449444,31.143526 60.950808,14.231594 74.106507,9.6046543 92.650785,18.411292 100.81047,22.286309 110.92514,29.089099 114.92431,33.391731 116.25769,34.826279 117.74012,36 118.21862,36 c 0.47849,0 4.54498,-2.991289 9.03664,-6.647308 4.49166,-3.656019 12.00923,-8.493519 16.7057,-10.75 C 151.81354,14.829818 153.15733,14.5 160.67667,14.5 c 6.73005,0 8.67617,0.370107 11,2.091948 3.90839,2.895926 7.06374,7.808795 8.87583,13.819667 2.47106,8.196733 1.87105,30.268426 -1.07796,39.653062 -0.36775,1.170316 0.89699,2.002416 5.01805,3.301463 9.49517,2.99309 23.1503,10.454788 29.12422,15.914613 12.76673,11.668067 12.49939,23.111657 -0.82154,35.166407 -6.09448,5.51518 -17.61218,11.7922 -27.54527,15.01186 -2.8875,0.93594 -5.25,1.89539 -5.25,2.13211 0,0.23672 0.71994,4.81306 1.59986,10.16964 3.53551,21.52265 -0.66027,38.88838 -10.96569,45.38545 -2.61272,1.64719 -4.47189,1.91425 -11.1745,1.60513 -6.85465,-0.31613 -9.1642,-0.92613 -15.66158,-4.13654 -4.19168,-2.07115 -11.54444,-6.91344 -16.33945,-10.76064 l -8.71821,-6.99492 -3.12022,2.92752 c -5.90113,5.53669 -14.13505,11.08214 -22.000538,14.81708 C 83.716677,199.3063 72.799147,200.38484 67,197.2336 Z m 23.75854,-10.77 c 3.992197,-1.96971 10.62477,-6.25631 14.73904,-9.52577 l 7.4805,-5.94449 -9.13165,-11.36382 -9.131665,-11.36383 -12.107382,-1.63727 c -6.659061,-0.9005 -13.066959,-1.89893 -14.239773,-2.21872 -1.942153,-0.52958 -2.227959,-0.0162 -3.203625,5.75442 -2.085875,12.33704 -2.384821,18.59794 -1.21825,25.51416 1.25736,7.45447 3.540892,11.87712 7.244021,14.02992 3.598028,2.09169 11.362516,0.8043 19.568784,-3.2446 z m 76.814,2.4762 c 3.64569,-3.02566 5.72104,-9.30215 6.22056,-18.81292 0.54889,-10.45071 -1.34173,-26.13746 -3.14668,-26.10845 -0.63053,0.0101 -4.74642,0.6372 -9.14642,1.39349 -4.4,0.75628 -10.475,1.66767 -13.5,2.0253 -4.81625,0.56939 -5.77303,1.06797 -7.69626,4.0105 -1.20794,1.84814 -5.13728,6.97351 -8.73187,11.38969 l -6.53561,8.02943 7.58559,6.10229 c 7.3104,5.88092 13.90846,9.78807 21.3493,12.64235 4.09971,1.57263 11.32722,1.21571 13.60139,-0.67168 z m -42.0191,-32.4398 5.72597,-7 -11.77348,-0.28289 c -6.47541,-0.15559 -11.99495,-0.0614 -12.26564,0.20926 -0.62637,0.62638 11.03206,14.6118 11.92344,14.30332 0.36505,-0.12633 3.24042,-3.37969 6.38971,-7.22969 z m 17.70949,-25.25 c 2.96123,-4.8125 7.3322,-12.37902 9.71325,-16.81448 l 4.32919,-8.06449 -3.79986,-6.935515 c -2.08993,-3.814533 -6.48012,-11.332569 -9.75598,-16.706746 L 137.79342,72.957538 118.68391,73.228769 99.574397,73.5 96.544388,78 c -5.439105,8.077853 -15.534967,26.45721 -15.539733,28.28984 -0.0059,2.25824 2.681066,7.54922 10.263394,20.21016 8.914871,14.88601 6.058011,13.5 27.826381,13.5 h 18.78445 z m -31.8043,-8.07037 C 97.163694,116.47662 96.487729,96.783224 110.3227,90.085828 c 16.1626,-7.82418 32.2088,8.13391 24.73384,24.598032 -3.79016,8.3481 -15.17312,12.44622 -23.59791,8.49577 z M 88,138.47574 c 0,-0.42104 -4.617088,-8.42495 -11.741326,-20.35408 -0.557038,-0.93273 -1.754652,1.33034 -3.704403,7 -1.584683,4.60809 -3.063053,8.89454 -3.285266,9.52546 -0.257892,0.73222 2.24265,1.57861 6.913486,2.34011 4.02463,0.65615 7.992509,1.32524 8.817509,1.48688 2.711492,0.53125 3,0.5314 3,0.002 z m 72.5,-1.54962 c 3.85,-0.65522 7.32625,-1.37625 7.72501,-1.60229 0.63357,-0.35914 -0.56823,-4.02398 -5.17919,-15.79368 l -1.16349,-2.96984 -4.01813,6.96984 c -2.20997,3.83342 -5.13662,8.89798 -6.50368,11.25459 l -2.48555,4.28474 2.31252,-0.47602 c 1.27188,-0.26182 5.46251,-1.01212 9.31251,-1.66734 z M 63.053787,126.25 c 1.219267,-3.7125 3.478788,-9.56482 5.021158,-13.00517 l 2.80431,-6.25516 -4.939628,-12.446252 C 63.222832,87.69798 61,81.625305 61,81.048584 61,79.663492 60.985719,79.665641 53.753982,82.13865 35.811633,88.274326 23,98.422888 23,106.5 c 0,4.40143 4.086127,9.74682 11.488535,15.02907 6.246633,4.45751 21.239525,11.4149 24.679935,11.45263 1.179794,0.0129 2.317757,-1.95869 3.885317,-6.7317 z m 120.293333,4.8026 c 9.57611,-3.29467 19.90523,-9.26261 25.31301,-14.6253 7.74975,-7.68516 7.73399,-12.19211 -0.0697,-19.913813 -2.79975,-2.770346 -7.90683,-6.522657 -11.34907,-8.33847 C 189.68541,84.189162 177.74161,79.876024 176.8708,80.818801 176.52474,81.19346 175.68998,83.3 175.01577,85.5 c -0.67421,2.2 -2.80175,7.73069 -4.72787,12.290422 l -3.50204,8.290418 3.98715,9.70958 c 2.19293,5.34027 4.52601,11.39708 5.18462,13.45958 0.65861,2.0625 1.31713,3.75 1.46337,3.75 0.14625,0 2.813,-0.87633 5.92612,-1.9474 z M 82.06363,85.246583 c 3.147904,-5.360621 5.272363,-9.912917 4.72102,-10.116215 -1.0571,-0.389786 -15.786885,1.78026 -16.982416,2.501912 -0.383771,0.231654 0.705745,4.457143 2.421146,9.389976 1.715401,4.932832 3.343433,8.744264 3.617849,8.469848 0.274416,-0.274416 3.074497,-4.884901 6.222401,-10.245521 z m 82.92352,2.630528 c 1.72288,-4.467589 2.91806,-8.681748 2.65595,-9.364798 -0.48232,-1.256911 -16.2685,-4.220244 -17.25053,-3.238216 -0.4182,0.418197 10.59541,20.626223 11.28474,20.705509 0.0975,0.01122 1.58695,-3.634906 3.30984,-8.102495 z M 78.5,67.438924 C 84,66.562777 89.861091,65.654229 91.524647,65.419928 93.972929,65.075104 96.230665,62.886411 103.37277,53.93413 113.5215,41.213198 113.58292,42.614574 102.51181,34.292266 94.943529,28.603089 86.436677,24.287 80.123053,22.93297 70.693945,20.910788 66.243834,24.955344 63.869544,37.705239 c -1.527322,8.201693 1.091074,31.27424 3.553308,31.31072 C 68.015283,69.024737 73,68.315071 78.5,67.438924 Z m 92.85266,0.08445 c 1.40728,-3.667324 2.84859,-19.679401 2.35677,-26.18238 C 171.8219,16.383559 156.68236,16.036377 127.542,40.282272 l -2.95801,2.461171 4.84337,5.378278 c 2.66385,2.958054 6.65977,7.949801 8.87982,11.092772 3.68429,5.215925 4.43589,5.768016 8.61464,6.327965 2.518,0.337409 7.72818,1.199754 11.57818,1.916322 9.59798,1.78639 12.18695,1.799401 12.85266,0.06459 z M 129.86146,62.25 c -0.79669,-0.9625 -3.59536,-4.33063 -6.21927,-7.484734 l -4.77075,-5.734734 -5.02759,5.734734 C 105.33828,64.467162 105.07139,64 119.1198,64 c 11.49484,0 12.10755,-0.09982 10.74166,-1.75 z"
         id="path1292" />
      <path
         style="fill:#b9b9b9;fill-opacity:1"
         d="m 66.747546,196.99411 c -10.150299,-5.53008 -14.246222,-24.07814 -10.259021,-46.45714 0.780313,-4.37967 1.215755,-8.16602 0.96765,-8.41413 -0.248105,-0.2481 -4.246905,-1.87893 -8.886223,-3.62405 C 21.179617,128.19565 8.6555952,111.50162 17.27825,96.788175 22.397984,88.05201 35.75709,79.107824 51.25,74.043416 54.9625,72.829854 57.991146,71.536128 57.980325,71.16847 57.969504,70.800811 57.310204,66.9 56.515213,62.5 55.720223,58.1 55.054076,50.657044 55.034888,45.960099 54.917945,17.33473 69.237591,7.1428424 93.273814,18.743866 101.44951,22.689844 111.3723,29.536073 115.83131,34.307403 l 2.33131,2.494602 8.66869,-6.967278 c 4.76778,-3.832003 12.459,-8.849954 17.0916,-11.151003 7.81267,-3.880609 9.0135,-4.183724 16.57445,-4.183724 7.4488,0 8.47882,0.249408 11.9479,2.893036 6.22474,4.743602 8.85197,11.865821 9.37459,25.413897 0.37554,9.734862 -0.86109,23.531006 -2.48961,27.774867 -0.29284,0.763114 2.05489,2.034158 6.35263,3.439277 10.16252,3.322571 21.83214,9.682976 27.84023,15.174026 12.27896,11.222287 12.63915,21.866777 1.12665,33.295667 -6.42599,6.37932 -18.84609,13.53443 -29.51153,17.00132 l -5.36177,1.7429 0.62316,3.6325 c 4.12518,24.04647 2.50457,39.15077 -5.1806,48.28408 -9.07417,10.78404 -28.05307,6.81265 -48.94849,-10.24261 l -7.22949,-5.90084 -7.93131,6.4033 c -4.36222,3.52181 -11.798401,8.31952 -16.524845,10.66156 -7.449595,3.69142 -9.624608,4.30534 -16.339204,4.61191 -6.35931,0.29034 -8.417305,-0.0123 -11.498125,-1.69078 z m 23.041396,-9.98253 c 6.365711,-2.97887 18.130018,-11.05457 21.453358,-14.72682 1.57217,-1.73724 1.38317,-2.16644 -3.43995,-7.8115 -2.80694,-3.28529 -6.86847,-8.30747 -9.025613,-11.16038 -3.732949,-4.93699 -4.195861,-5.21786 -9.59941,-5.82451 -5.735058,-0.64386 -15.472646,-2.11792 -20.304206,-3.0736 -2.53497,-0.50142 -2.674124,-0.28159 -3.977183,6.28282 C 64.153271,154.43891 63.535367,162 63.522817,167.5 c -0.05056,22.15871 7.934196,28.09013 26.266125,19.51158 z m 77.001938,2.42234 c 1.22974,-0.86135 3.22019,-3.44885 4.42321,-5.75 2.72373,-5.20999 3.62703,-21.76851 1.78369,-32.69709 l -1.21663,-7.213 -3.64058,0.60303 c -2.00231,0.33167 -8.58385,1.33345 -14.62564,2.22619 -7.90586,1.16817 -11.32121,2.10306 -12.18423,3.3352 -1.72975,2.46956 -9.28207,12.20586 -13.11112,16.9026 l -3.28043,4.02378 6.78043,5.43445 c 15.87964,12.7274 28.76384,17.55276 35.0713,13.13484 z M 125.49443,156.75 l 5.77881,-7.25 -11.77039,-0.28289 c -6.47372,-0.15559 -11.98368,-0.0696 -12.24435,0.19106 C 106.71106,149.9556 118.06716,164 119.05725,164 c 0.3621,0 3.25883,-3.2625 6.43718,-7.25 z M 131.49799,140 h 6.21885 l 3.47552,-5.25 c 1.91154,-2.8875 6.34811,-10.38714 9.85904,-16.66586 l 6.38351,-11.41587 -4.25467,-7.904986 C 150.84017,94.415541 146.44006,86.84018 143.40222,81.929148 L 137.87888,73 H 118.60566 99.332437 l -7.559008,12.75 c -4.157454,7.0125 -8.460618,14.54684 -9.562587,16.74297 l -2.003581,3.99297 2.001415,4.00703 c 1.100778,2.20387 5.394054,9.72796 9.540614,16.7202 l 7.539199,12.71317 8.605751,0.37964 c 4.73317,0.20881 10.58107,0.22538 12.99533,0.0368 C 123.30384,140.15427 128.07762,140 131.49799,140 Z M 112.5,123.54881 c -8.67181,-3.17674 -13.667054,-12.51552 -11.50815,-21.51485 4.27432,-17.817362 29.31531,-18.783425 35.06791,-1.3529 4.71102,14.27454 -9.46269,28.03193 -23.55976,22.86775 z M 88,138.47261 c 0,-0.29006 -2.78244,-5.29721 -6.1832,-11.127 l -6.1832,-10.59961 -3.253136,8.377 c -1.789225,4.60735 -3.281785,8.91911 -3.3168,9.58169 -0.06227,1.1783 1.249191,1.54909 11.436336,3.23339 6.625194,1.09539 7.5,1.15773 7.5,0.53453 z m 72.4489,-1.48476 c 3.82189,-0.61361 7.29762,-1.33119 7.72385,-1.59461 0.79102,-0.48889 -4.53125,-16.15174 -5.98105,-17.60154 -0.43913,-0.43913 -2.62973,2.4656 -4.86801,6.45494 -2.23828,3.98935 -5.08488,8.96402 -6.32579,11.05482 l -2.25618,3.80147 2.37914,-0.4997 c 1.30853,-0.27484 5.50614,-1.00176 9.32804,-1.61538 z M 62.041828,129.25 c 0.658312,-2.0625 2.947439,-8.06593 5.086947,-13.34096 l 3.890016,-9.59097 -2.874078,-6.409033 C 66.563971,96.384067 64.273054,90.4625 63.053787,86.75 61.834521,83.0375 60.409111,80 59.88621,80 57.652264,80 42.911652,86.282591 37.445964,89.564249 27.377475,95.609479 23,100.85433 23,106.8726 c 0,4.0929 5.194944,10.57581 12.423446,15.50355 5.902821,4.02402 20.570522,10.57506 23.749002,10.60703 1.059899,0.0107 2.110835,-1.35665 2.86938,-3.73318 z m 124.688412,0.58977 c 10.17755,-4.23692 15.15531,-7.10665 20.52373,-11.83212 6.00931,-5.28961 8.23573,-9.99381 6.79541,-14.35801 C 211.85048,96.986891 200.39284,88.610711 185.75763,82.966778 178.19249,80.04935 176,79.879705 176,82.211773 c 0,0.601557 -2.0612,6.245593 -4.58044,12.542303 l -4.58044,11.448564 5.31129,13.39868 c 2.9212,7.36927 5.68868,13.39868 6.14995,13.39868 0.46127,0 4.25472,-1.4221 8.42988,-3.16023 z M 82.405658,84.758683 C 85.482546,79.400958 88,74.858871 88,74.665157 c 0,-0.621351 -17.469442,2.520491 -18.299219,3.291075 -0.43957,0.408213 0.670078,4.627909 2.465886,9.377101 1.795807,4.749193 3.575501,8.304545 3.954876,7.900782 0.379375,-0.403763 3.207226,-5.117708 6.284115,-10.475432 z m 83.146602,1.939414 c 1.58465,-4.50567 2.3645,-8.142916 1.84584,-8.60905 C 166.29894,77.101198 155.72001,75 151.84564,75 h -2.8208 l 3.3223,5.25 c 1.82726,2.8875 4.5997,7.624468 6.16098,10.526596 1.56128,2.902128 3.16753,4.927128 3.56945,4.5 0.40192,-0.427128 1.96553,-4.287452 3.47469,-8.578499 z m 7.51233,-28.727253 C 175.23147,43.151492 172.81621,28.383346 167.50882,24 164.19024,21.259198 156.33631,22.099883 148,26.088224 c -6.26434,2.997046 -23,15.019839 -23,16.523052 0,0.246921 2.37008,3.247896 5.26684,6.668835 2.89676,3.420939 6.793,8.350362 8.65831,10.954274 2.49504,3.483012 4.20865,4.858969 6.48316,5.205726 16.62854,2.535085 24.16526,3.824697 24.55308,4.201291 0.80637,0.78304 1.86364,-3.193161 3.1032,-11.670558 z m -94.379832,9.481855 c 5.398383,-0.851015 11.272258,-1.770377 13.053055,-2.043026 2.604323,-0.398736 4.411692,-2.003624 9.237597,-8.2027 3.29988,-4.238835 7.1974,-9.181615 8.66115,-10.983954 l 2.66137,-3.276981 -2.39896,-2.581288 C 106.15764,36.339081 96.007198,29.391403 89.082733,26.116649 73.485045,18.740109 66.661068,21.797615 63.947783,37.37845 62.224845,47.272293 64.710203,69 67.564864,69 c 0.717559,0 5.721512,-0.696285 11.119894,-1.547301 z M 129.1386,61.25 c -1.09868,-1.5125 -3.94182,-4.898108 -6.3181,-7.523573 L 118.5,48.952854 112.75,55.867642 C 109.5875,59.670776 107,63.056384 107,63.391215 107,63.726047 112.43064,64 119.06809,64 h 12.0681 z"
         id="path1290" />
      <path
         style="fill:#b0b0b0;fill-opacity:1"
         d="M 67.31614,197.05654 C 56.814896,192.28882 52.308538,173.24127 56.499829,151.33797 58.360273,141.61546 58.359421,141 56.485528,141 53.311285,141 37.71594,133.96475 31.014809,129.50985 11.608967,116.60887 9.3762118,100.60768 25.184204,87.724427 31.036674,82.954762 40.902372,77.732701 50.25,74.456727 54.5125,72.962889 57.991146,71.23651 57.980325,70.620329 57.969504,70.004148 57.310204,65.9 56.515213,61.5 53.620074,45.476396 55.175465,29.921959 60.477964,21.871149 63.350708,17.509448 70.108311,14 75.634223,14 c 10.707265,0 31.634847,10.700407 40.717187,20.818953 1.84986,2.060916 1.85862,2.056791 10.5,-4.945025 20.0181,-16.219991 37.71905,-20.3034694 47.14623,-10.876288 5.42768,5.427681 8.00481,14.085271 7.99481,26.857695 -0.007,8.568976 -1.17739,19.68776 -2.55394,24.256625 -0.37568,1.246931 1.27467,2.232135 7.28791,4.350639 22.49078,7.923643 36.31414,20.370763 36.26381,32.653421 -0.018,4.39903 -4.58782,12.33684 -9.80032,17.02333 -5.5531,4.99271 -16.98259,11.29887 -27.02898,14.91308 -6.18048,2.22345 -6.32562,2.35764 -5.80164,5.36404 0.29559,1.69594 1.07038,7.43737 1.72176,12.75873 2.09752,17.13547 -1.7318,32.40848 -9.63579,38.43176 -3.46223,2.63841 -4.50704,2.89304 -11.87081,2.89304 -7.00339,0 -8.96712,-0.42287 -14.80401,-3.18789 -7.73787,-3.66555 -14.07457,-7.81827 -21.4612,-14.06448 l -5.19075,-4.38935 -6.46854,5.32086 c -17.599056,14.47657 -34.209897,19.92782 -45.33381,14.8774 z m 23.975633,-10.85097 c 4.514525,-2.244 11.264667,-6.60877 15.000317,-9.69949 6.77281,-5.60355 6.78701,-5.626 5,-7.90459 -15.756184,-20.09057 -16.058538,-20.3858 -21.580927,-21.07243 -2.86614,-0.35637 -9.212654,-1.3072 -14.103366,-2.11296 -4.890712,-0.80577 -9.037611,-1.31962 -9.215332,-1.1419 -0.177721,0.17772 -1.063789,4.57623 -1.96904,9.77447 -2.96631,17.03348 -0.164941,32.25888 6.576575,35.74359 4.146107,2.14313 11.312891,0.87636 20.291773,-3.58669 z m 76.628727,2.20787 c 5.77239,-4.85714 7.93391,-21.10081 5.02821,-37.78656 l -1.19415,-6.8573 -3.62728,0.54549 c -1.995,0.30001 -8.55118,1.26325 -14.56927,2.14053 -6.01809,0.87728 -11.0049,1.69615 -11.08178,1.81972 -0.45443,0.73035 -12.79232,16.7607 -14.94374,19.41608 l -2.58572,3.19139 5.78701,4.80861 c 16.70724,13.88255 30.28651,18.52819 37.18672,12.72204 z M 125.38736,157.05335 C 128.47431,153.23269 131,149.85769 131,149.55335 131,149.24901 125.34383,149 118.43074,149 h -12.56927 l 6.20379,7.5 c 3.41208,4.125 6.54256,7.5 6.95662,7.5 0.41406,0 3.27853,-3.12599 6.36548,-6.94665 z m 12.75097,-17.63885 c 0.9823,-0.60709 14.23448,-22.96946 16.91891,-28.54977 l 2.22981,-4.63526 -4.80163,-8.864737 c -2.6409,-4.875603 -6.98964,-12.298958 -9.66387,-16.496344 l -4.86224,-7.63161 -9.72966,-0.439862 c -5.35131,-0.241924 -14.04719,-0.238405 -19.32418,0.0078 l -9.594526,0.447683 -5.098825,8.123789 c -2.804353,4.468085 -7.129198,11.95428 -9.610766,16.635989 l -4.511942,8.512202 4.515516,8.4878 c 2.483534,4.66829 6.832158,12.18126 9.663609,16.69549 l 5.148093,8.20769 6.041681,0.41298 c 6.70267,0.45816 31.58593,-0.23767 32.68002,-0.91386 z M 112.5,123.54308 c -10.33909,-3.77271 -14.979828,-15.75684 -9.93065,-25.644636 6.70364,-13.12771 26.47886,-12.809843 32.53432,0.522957 C 141.83731,113.24742 127.612,129.05741 112.5,123.54308 Z M 88,138.49132 c 0,-0.27978 -2.475,-4.7957 -5.5,-10.03539 C 79.475,123.21625 77,118.49516 77,117.96462 77,117.43408 76.643587,117 76.20797,117 c -0.999771,0 -7.711148,17.83016 -6.984785,18.55652 0.541242,0.54124 13.780414,3.13459 17.026815,3.33529 0.9625,0.0595 1.75,-0.12072 1.75,-0.40049 z m 73.75,-1.59537 c 3.9875,-0.66894 7.25,-1.49195 7.25,-1.82891 0,-1.18719 -6.13796,-16.57756 -6.93458,-17.38781 -0.44383,-0.45143 -2.72741,2.69857 -5.07463,7 -2.34722,4.30142 -5.10537,9.01524 -6.12923,10.47514 -2.49393,3.55606 -2.35549,4.09854 0.88844,3.48119 1.5125,-0.28785 6.0125,-1.07067 10,-1.73961 z M 68.842463,111.5965 71.023336,106.69301 67.131048,97.096505 C 64.990289,91.818427 62.70014,85.8125 62.041828,83.75 61.383515,81.6875 60.440067,80 59.945277,80 59.450486,80 56.206945,81.068489 52.737407,82.374419 33.992571,89.429957 23.007476,98.344265 23.007476,106.5 c 0,8.32036 13.231117,18.98899 30.992524,24.99016 l 6.5,2.1962 3.080795,-8.59318 c 1.694437,-4.72625 4.062187,-10.79975 5.261668,-13.49668 z m 117.944517,18.35224 c 13.94184,-5.58258 24.64092,-13.58924 27.1835,-20.34278 2.48053,-6.58875 -4.75178,-15.448529 -18.09856,-22.171202 -8.15675,-4.108493 -17.91797,-7.722037 -18.71269,-6.927318 -1.48208,1.482081 -9.44531,23.42777 -9.43167,25.99256 0.0179,3.36385 9.26206,26.5 10.58823,26.5 0.46807,0 4.28011,-1.37307 8.47119,-3.05126 z M 77,95.208036 c 0,-0.435581 2.298982,-4.801422 5.108849,-9.70187 2.809867,-4.900447 5.310683,-9.435874 5.557369,-10.078726 0.502144,-1.308568 -16.49476,1.001102 -17.930143,2.436485 C 68.802838,78.797162 74.87106,96 76.133492,96 76.610071,96 77,95.643616 77,95.208036 Z m 88.62753,-8.53445 c 2.37743,-6.213239 2.82675,-8.348818 1.87342,-8.904208 C 166.1374,76.975001 149,74.058554 149,74.620882 c 0,0.18914 1.76936,3.234675 3.9319,6.767856 2.16255,3.533181 4.89394,8.309714 6.06976,10.614519 1.17583,2.304804 2.44397,3.88756 2.8181,3.517234 0.37413,-0.370326 2.08763,-4.351433 3.80777,-8.846905 z M 81.728833,67.05014 C 94.476732,65.195535 94.505466,65.185283 97.5,61.422861 c 1.65,-2.073109 5.76203,-7.113109 9.13785,-11.200001 l 6.13784,-7.430711 -3.63784,-3.282374 C 98.876671,30.251273 83.187815,22 75.845005,22 65.648881,22 60.740267,37.832059 64.409914,58.882312 c 1.758619,10.087995 2.229538,11.458553 3.638018,10.588065 0.500354,-0.309236 6.65676,-1.398343 13.680901,-2.420237 z M 171.3947,68.25 c 1.29978,-4.295968 2.59083,-15.387982 2.59775,-22.318499 0.009,-9.484697 -2.26712,-17.360014 -6.13714,-21.230033 -2.73945,-2.739452 -3.37959,-2.927164 -8.26334,-2.423116 -6.90381,0.712536 -17.24172,5.95811 -26.9563,13.677935 C 128.43605,39.293568 125,42.276872 125,42.585852 c 0,0.308981 2.41265,3.405675 5.36144,6.881543 2.94879,3.475869 6.85933,8.405548 8.6901,10.954844 1.83077,2.549295 4.25562,4.811787 5.38856,5.027759 1.13295,0.215972 6.06222,0.934327 10.95394,1.596344 4.89172,0.662017 10.06672,1.558737 11.5,1.99271 3.79498,1.149057 3.92095,1.126971 4.50066,-0.789052 z M 131,64.092371 c 0,-0.748056 -7.87374,-10.625127 -10.24866,-12.856253 l -2.34221,-2.200391 -6.20457,7.3774 C 108.79205,60.470698 106,63.950159 106,64.145264 106,64.340369 111.625,64.5 118.5,64.5 c 6.875,0 12.5,-0.183433 12.5,-0.407629 z"
         id="path1288" />
      <path
         style="fill:#a7a7a7;fill-opacity:1"
         d="m 66.907284,196.68112 c -3.570167,-1.87844 -5.053055,-3.57887 -7.80716,-8.95251 -3.013522,-5.8798 -3.452071,-7.74699 -3.859183,-16.43112 -0.303403,-6.47192 0.0869,-12.93738 1.149876,-19.04793 C 57.275868,147.16181 58,142.59939 58,142.11085 c 0,-0.48855 -1.479299,-1.16579 -3.287331,-1.50498 -1.808032,-0.33918 -8.312539,-3.0889 -14.454461,-6.11049 C 23.19489,126.10091 15,117.03962 15,106.56675 15,100.14446 17.100427,95.741918 22.796875,90.224331 29.118502,84.101195 38.263319,78.7863 49.22191,74.866312 54.04986,73.139311 58,71.33809 58,70.8636 58,70.389109 57.273595,65.83819 56.385767,60.750445 53.940428,46.737306 54.884829,33.707534 58.943378,25.46345 c 2.15616,-4.379783 4.232236,-7.0269 6.713957,-8.560689 10.409276,-6.433286 28.185416,-0.973833 46.322125,14.226567 l 6.71676,5.629328 6.40189,-5.454734 c 21.75536,-18.536669 42.81969,-22.4924783 51.2918,-9.632426 5.46424,8.294312 7.19372,25.875685 4.12377,41.920879 -0.81748,4.272571 -1.37814,7.876501 -1.24591,8.008733 0.13224,0.132232 3.98863,1.608348 8.56978,3.280258 21.38937,7.806154 35.1159,20.173647 35.15268,31.672294 0.0155,4.83011 -4.68913,13.02491 -10.3303,17.99411 -5.55268,4.89125 -19.36648,12.31186 -27.96431,15.02209 l -5.30669,1.67278 1.35043,6.12868 c 1.84641,8.37961 2.08099,26.859 0.42294,33.31675 -1.93062,7.5193 -6.27871,13.82051 -11.30674,16.38562 -9.84068,5.02034 -25.75185,-0.0511 -42.58858,-13.5745 l -8.23303,-6.61283 -6.82414,5.51366 c -18.386134,14.85531 -34.535416,19.94619 -45.302526,14.2811 z m 18.867699,-7.68343 c 6.198902,-2.16806 20.005867,-11.05555 24.535067,-15.79314 l 2.81004,-2.93934 -5.58917,-6.3826 c -3.07405,-3.51044 -7.03857,-8.49456 -8.810049,-11.07584 -3.025133,-4.40801 -3.555115,-4.73185 -8.720871,-5.32866 -3.025,-0.34948 -9.325,-1.27359 -14,-2.05357 -4.675,-0.77998 -8.805596,-1.41959 -9.179102,-1.42135 -1.491079,-0.007 -3.215624,12.13315 -3.266763,22.99681 -0.04862,10.32822 0.200599,12.00947 2.445865,16.5 3.900334,7.80067 9.076108,9.2396 19.774983,5.49769 z m 82.077727,-0.52721 c 4.28185,-3.60293 6.4179,-10.86105 6.44295,-21.89256 0.027,-11.90746 -2.08206,-23.87387 -4.07314,-23.10981 -1.21229,0.46519 -11.45373,2.16317 -24.85503,4.12084 -2.23673,0.32674 -3.84041,1.52331 -5.60797,4.18432 -1.3615,2.0497 -5.25884,7.10173 -8.66075,11.22673 l -6.18528,7.5 4.79325,4.29871 c 15.56111,13.9556 31.16312,19.54746 38.14597,13.67177 z m -42.46617,-31.3318 C 128.47394,153.36496 131,149.98996 131,149.63868 131,149.28741 125.34383,149 118.43074,149 h -12.56927 l 6.20379,7.5 c 3.41208,4.125 6.54219,7.5 6.9558,7.5 0.41361,0 3.27808,-3.08759 6.36548,-6.86132 z m 7.08732,-16.99721 5.97386,-0.64147 5.27479,-8.5 c 2.90113,-4.675 7.15615,-12.13866 9.45558,-16.58592 l 4.1808,-8.08592 -4.76311,-8.809318 c -2.61971,-4.845125 -6.90657,-12.23146 -9.52636,-16.41408 L 138.30618,73.5 129.90309,72.781133 c -4.6217,-0.395378 -13.40274,-0.450577 -19.51341,-0.122666 l -11.110325,0.596202 -6.003447,9.622665 C 89.974013,88.1698 85.676753,95.670656 83.726441,99.545903 l -3.546021,7.045907 4.179012,8.0259 c 2.298457,4.41424 6.625815,11.9108 9.61635,16.659 l 5.437338,8.6331 5.04344,0.36011 c 8.5037,0.60719 21.73121,0.54654 28.0173,-0.12845 z m -19.81867,-16.60012 c -7.58842,-2.70564 -11.9409,-8.91725 -11.9409,-17.04135 0,-8.272888 4.85532,-14.882737 12.8769,-17.530095 14.00914,-4.623434 27.79944,10.586085 22.05777,24.327835 -1.78581,4.27404 -7.67142,9.33687 -12.37163,10.64213 -4.77679,1.32653 -5.90241,1.2843 -10.62214,-0.39852 z m -29.210172,6.27586 c -2.984449,-5.05053 -5.685814,-10.00053 -6.003032,-11 C 77.124767,117.81775 76.488107,117 76.027186,117 75.253251,117 69,133.00101 69,134.98137 c 0,0.76772 4.869943,2.01893 13,3.34003 7.341153,1.1929 7.304091,1.41102 1.445018,-8.50419 z M 161.75,136.89595 c 3.9875,-0.66894 7.25,-1.55574 7.25,-1.97066 0,-1.56067 -6.20716,-16.93529 -7.04674,-17.45417 -0.48211,-0.29797 -1.82447,1.31628 -2.98302,3.58721 -1.15854,2.27093 -3.87579,7.01975 -6.03834,10.55293 -2.16254,3.53318 -3.9319,6.6768 -3.9319,6.98581 0,0.30901 1.2375,0.32633 2.75,0.0385 1.5125,-0.28785 6.0125,-1.07067 10,-1.73961 z M 61.473092,131.25 c 0.37945,-1.5125 2.676989,-7.71661 5.105644,-13.78691 l 4.415736,-11.03691 -3.345757,-7.963092 C 65.808549,94.083389 63.511455,88.100849 62.54406,85.168552 60.527026,79.054664 60.705864,79.073641 49.024847,83.734014 32.90247,90.166355 23,98.828826 23,106.5 c 0,7.99555 10.493896,16.91714 28.480582,24.21333 4.41068,1.78916 8.308134,3.2606 8.66101,3.26985 0.352876,0.009 0.952051,-1.22068 1.3315,-2.73318 z M 186.9267,129.96802 c 14.04541,-5.41648 26.01851,-14.8891 27.53258,-21.78264 1.63295,-7.43475 -9.12396,-17.518267 -25.786,-24.171772 C 178.0352,79.765594 176.00791,79.387263 175.96286,81.641592 175.94243,82.663716 173.79504,88.675 171.19087,95 l -4.73484,11.5 3.63213,8.5 c 1.99767,4.675 4.40728,10.6375 5.35469,13.25 0.94741,2.6125 2.14986,4.75 2.67212,4.75 0.52225,0 4.48753,-1.36439 8.81173,-3.03198 z M 77,95.218761 c 0,-0.429681 2.517283,-5.187398 5.593962,-10.572704 3.07668,-5.385306 5.43918,-9.932533 5.25,-10.104949 C 87.142861,73.902134 69,77.323534 69,78.094723 69,80.121285 75.291592,96 76.094573,96 76.592558,96 77,95.648442 77,95.218761 Z m 88.92724,-9.004711 c 2.21633,-6.02316 2.71085,-8.403757 1.81086,-8.717336 -2.00893,-0.699961 -18.21019,-3.329436 -18.54469,-3.009815 -0.16863,0.161124 1.48823,3.225344 3.6819,6.809378 2.19367,3.584034 4.9556,8.412108 6.13761,10.729052 1.20581,2.363572 2.52578,3.831205 3.00724,3.343649 0.47197,-0.477938 2.23016,-4.597656 3.90708,-9.154928 z M 78.38099,67.530944 c 4.884545,-0.842019 10.284545,-1.537835 12,-1.546257 3.7842,-0.01858 4.537506,-0.509534 7.648343,-4.984687 1.338136,-1.925 5.295577,-6.791328 8.794317,-10.814062 l 6.36135,-7.314062 -3.8425,-3.433214 C 99.205325,30.381257 86.054136,23.223493 78,22.379959 71.93435,21.744685 69.010135,23.47973 66,29.5 c -2.190476,4.380952 -2.5,6.3 -2.5,15.5 0,13.336257 2.140361,25.240709 4.413336,24.54649 0.872665,-0.266531 5.58311,-1.173527 10.467654,-2.015546 z m 92.94295,1.067276 c 1.50273,-3.916066 2.88229,-18.846681 2.44692,-26.482448 C 173.01927,28.934092 168.70408,22 161.25251,22 c -7.5039,0 -21.90641,7.459067 -32.1632,16.65734 l -4.41069,3.9555 7.17524,8.94358 c 12.10971,15.094159 10.80434,14.054272 18.64614,14.853921 3.85,0.392595 9.7,1.314764 13,2.049264 3.3,0.7345 6.28936,1.381566 6.64301,1.437924 0.35366,0.05636 0.88507,-0.52833 1.18093,-1.299309 z M 130.4758,63.07918 c -0.67302,-1.757377 -10.74428,-13.939049 -11.59128,-14.020206 -0.57463,-0.05506 -12.8839,14.377163 -12.88504,15.107289 -2.8e-4,0.183555 5.6292,0.333737 12.50997,0.333737 10.39921,0 12.41865,-0.239778 11.96635,-1.42082 z"
         id="path1286" />
      <path
         style="fill:#9e9e9e;fill-opacity:1"
         d="m 173.5,194 c 0.99549,-1.1 2.03498,-2 2.30998,-2 0.275,0 -0.31449,0.9 -1.30998,2 -0.99549,1.1 -2.03498,2 -2.30998,2 -0.275,0 0.31449,-0.9 1.30998,-2 z m -63,-21 c 0.99549,-1.1 2.03498,-2 2.30998,-2 0.275,0 -0.31449,0.9 -1.30998,2 -0.99549,1.1 -2.03498,2 -2.30998,2 -0.275,0 0.31449,-0.9 1.30998,-2 z m 15.37244,-0.75 c -1.24387,-1.58606 -1.2085,-1.62143 0.37756,-0.37756 0.9625,0.75485 1.75,1.54235 1.75,1.75 0,0.82304 -0.82119,0.29331 -2.12756,-1.37244 z m 56.37974,-5.75 c 0.0111,-2.2 0.21589,-2.98225 0.45508,-1.73834 0.23919,1.24391 0.23011,3.04391 -0.0202,4 -0.25029,0.95609 -0.446,-0.0617 -0.4349,-2.26166 z m -75.37974,-3.25 c -1.24387,-1.58606 -1.2085,-1.62143 0.37756,-0.37756 0.9625,0.75485 1.75,1.54235 1.75,1.75 0,0.82304 -0.82119,0.29331 -2.12756,-1.37244 z m 6.41407,-14.99008 c 3.18258,-0.19905 8.13258,-0.1972 11,0.004 2.86742,0.20131 0.26349,0.36417 -5.78651,0.36191 -6.05,-0.002 -8.39607,-0.16696 -5.21349,-0.36601 z m -10.01748,-7.95291 c 0.97297,-0.25354 2.32297,-0.23687 3,0.0371 0.67703,0.27393 -0.11903,0.48137 -1.76903,0.46099 -1.65,-0.0204 -2.20394,-0.2445 -1.23097,-0.49804 z m 27.48097,0.0307 c 0.6875,-0.27741 1.8125,-0.27741 2.5,0 0.6875,0.27741 0.125,0.50439 -1.25,0.50439 -1.375,0 -1.9375,-0.22698 -1.25,-0.50439 z m -12.9375,-16.02083 c 0.72187,-0.28887 1.58437,-0.25335 1.91667,0.0789 0.33229,0.3323 -0.25834,0.56864 -1.3125,0.52522 -1.16495,-0.048 -1.4019,-0.28494 -0.60417,-0.60416 z M 214,122.5 c 1.29175,-1.375 2.57363,-2.5 2.84863,-2.5 0.275,0 -0.55688,1.125 -1.84863,2.5 -1.29175,1.375 -2.57363,2.5 -2.84863,2.5 -0.275,0 0.55688,-1.125 1.84863,-2.5 z M 105.40499,118.75 103.5,116.5 l 2.25,1.90499 c 2.11444,1.79022 2.70524,2.59501 1.90499,2.59501 -0.18976,0 -1.20226,-1.0125 -2.25,-2.25 z M 27.924314,117.25 25.5,114.5 l 2.75,2.42431 C 30.820289,119.1902 31.458588,120 30.674314,120 c -0.179127,0 -1.416627,-1.2375 -2.75,-2.75 z m -5.845367,-10.83333 c 0.04798,-1.16495 0.284941,-1.4019 0.604167,-0.60417 0.288871,0.72187 0.253344,1.58437 -0.07895,1.91667 -0.332292,0.33229 -0.568641,-0.25834 -0.52522,-1.3125 z M 25,98.687091 c 0,-0.1721 1.4625,-1.6346 3.25,-3.25 L 31.5,92.5 28.562909,95.75 C 25.825128,98.779455 25,99.459652 25,98.687091 Z M 214.43709,90.75 211.5,87.5 l 3.25,2.937091 C 217.77946,93.174872 218.45965,94 217.68709,94 c -0.1721,0 -1.6346,-1.4625 -3.25,-3.25 z M 21,91.622445 c 0,-0.207656 0.7875,-0.995156 1.75,-1.75 C 24.336056,88.628574 24.371426,88.663944 23.127555,90.25 21.821186,91.915748 21,92.445479 21,91.622445 Z m 85.26903,-19.315436 c 0.97297,-0.253543 2.32297,-0.236869 3,0.03705 0.67703,0.273923 -0.11903,0.481368 -1.76903,0.460988 -1.65,-0.02038 -2.20394,-0.244498 -1.23097,-0.498042 z m 22.48097,0.03071 c 0.6875,-0.277412 1.8125,-0.277412 2.5,0 0.6875,0.277413 0.125,0.504386 -1.25,0.504386 -1.375,0 -1.9375,-0.226973 -1.25,-0.504386 z m -13.97357,-8.071216 c 2.35204,-0.211245 5.95204,-0.208273 8,0.0066 2.04796,0.214878 0.12357,0.387715 -4.27643,0.384083 -4.4,-0.0036 -6.07561,-0.179441 -3.72357,-0.390687 z M 121.87244,52.25 C 120.62857,50.663944 120.66394,50.628574 122.25,51.872445 123.91575,53.178814 124.44548,54 123.62244,54 c -0.20765,0 -0.99515,-0.7875 -1.75,-1.75 z m 4,-7 c -1.24387,-1.586056 -1.2085,-1.621426 0.37756,-0.377555 0.9625,0.754844 1.75,1.542344 1.75,1.75 0,0.823034 -0.82119,0.293303 -2.12756,-1.372445 z M 55.078947,38.416667 c 0.04798,-1.164943 0.284941,-1.4019 0.604167,-0.604167 0.288871,0.721875 0.253344,1.584375 -0.07895,1.916667 -0.332292,0.332291 -0.568641,-0.258334 -0.52522,-1.3125 z M 113.87244,33.25 c -1.24387,-1.586056 -1.2085,-1.621426 0.37756,-0.377555 0.9625,0.754844 1.75,1.542344 1.75,1.75 0,0.823034 -0.82119,0.293303 -2.12756,-1.372445 z M 125,31.622445 c 0,-0.207656 0.7875,-0.995156 1.75,-1.75 1.58606,-1.243871 1.62143,-1.208501 0.37756,0.377555 C 125.82119,31.915748 125,32.445479 125,31.622445 Z M 167.87244,24.25 C 166.62857,22.663944 166.66394,22.628574 168.25,23.872445 169.91575,25.178814 170.44548,26 169.62244,26 c -0.20765,0 -0.99515,-0.7875 -1.75,-1.75 z"
         id="path1284" />
    </g>
  </g>
</svg>
