<svg
   width="62.634243mm"
   height="60.367088mm"
   viewBox="0 0 62.634243 60.367088">
  <g
     id="layer1"
     transform="translate(-71.120796,-107.96216)">
    <path
       id="path113"
       style="fill:#7e0000;stroke-width:0.264583"
       d="m 119.1208,144.32925 a 24,24 0 0 1 -24.000004,24 24,24 0 0 1 -24,-24 24,24 0 0 1 24,-24 24,24 0 0 1 24.000004,24 z" />
    <path
       id="circle115"
       style="fill:#ffffff;stroke-width:0.264583"
       d="m 133.75504,131.96216 a 24,24 0 0 1 -24,24 24,24 0 0 1 -23.999997,-24 24,24 0 0 1 23.999997,-24 24,24 0 0 1 24,24 z" />
  </g>
</svg>
