<svg
   width="89.40741mm"
   height="99.315796mm"
   viewBox="0 0 89.40741 99.315796">
  <g
     id="layer1"
     transform="translate(-41.535583,-90.645561)">
    <path
       id="path10"
       style="fill:#7e0000;stroke-width:0.264583"
       d="m 110.23929,139.96495 a 24,24 0 0 1 -24.000002,24 24,24 0 0 1 -24,-24 24,24 0 0 1 24,-24 24,24 0 0 1 24.000002,24 z" />
    <path
       id="path10-3"
       style="fill:#7e0000;stroke-width:0.264583"
       d="m 93.584152,98.645561 a 8,8 0 0 1 -8,7.999999 8,8 0 0 1 -8,-7.999999 8,8 0 0 1 8,-8 8,8 0 0 1 8,8 z" />
    <path
       id="circle38"
       style="fill:#7e0000;stroke-width:0.264583"
       d="m 130.94299,137.48657 a 8,8 0 0 1 -8,8 8,8 0 0 1 -8,-8 8,8 0 0 1 8,-8 8,8 0 0 1 8,8 z" />
    <path
       id="circle40"
       style="fill:#7e0000;stroke-width:0.264583"
       d="m 57.535583,140.00258 a 8,8 0 0 1 -8,8 8,8 0 0 1 -8,-8 8,8 0 0 1 8,-8 8,8 0 0 1 8,8 z" />
    <path
       id="circle42"
       style="fill:#7e0000;stroke-width:0.264583"
       d="m 94.894424,181.96136 a 8,8 0 0 1 -8,8 8,8 0 0 1 -8,-8 8,8 0 0 1 8,-8 8,8 0 0 1 8,8 z" />
    <path
       id="circle44"
       style="fill:#7e0000;stroke-width:0.264583"
       d="m 66.788666,169.82019 a 8,8 0 0 1 -8,8 8,8 0 0 1 -8,-8 8,8 0 0 1 8,-8 8,8 0 0 1 8,8 z" />
    <path
       id="circle46"
       style="fill:#7e0000;stroke-width:0.264583"
       d="m 121.6899,169.33398 a 8,8 0 0 1 -8,8 8,8 0 0 1 -8,-8 8,8 0 0 1 8,-8 8,8 0 0 1 8,8 z" />
    <path
       id="circle48"
       style="fill:#7e0000;stroke-width:0.264583"
       d="m 121.6899,112.1544 a 8,8 0 0 1 -8,8 8,8 0 0 1 -8,-8 8,8 0 0 1 8,-8 8,8 0 0 1 8,8 z" />
    <path
       id="circle50"
       style="fill:#7e0000;stroke-width:0.264583"
       d="m 66.788666,110.60944 a 8,8 0 0 1 -8,8 8,8 0 0 1 -8,-8 8,8 0 0 1 8,-8 8,8 0 0 1 8,8 z" />
  </g>
</svg>
